<?xml version="1.0" standalone="no"?>
<!DOCTYPE svg PUBLIC "-//W3C//DTD SVG 20010904//EN"
 "http://www.w3.org/TR/2001/REC-SVG-20010904/DTD/svg10.dtd">
<svg version="1.0" xmlns="http://www.w3.org/2000/svg"
 width="700.000000pt" height="700.000000pt" viewBox="0 0 700.000000 700.000000"
 preserveAspectRatio="xMidYMid meet">
<metadata>
Created by potrace 1.11, written by Peter Selinger 2001-2013
</metadata>
<g transform="translate(0.000000,700.000000) scale(0.100000,-0.100000)"
fill="#000000" stroke="none">
<path d="M4094 6938 c-5 -7 -15 -24 -21 -37 -7 -13 -22 -40 -33 -60 -103 -191
-237 -589 -265 -791 -6 -43 -10 -67 -20 -127 -4 -25 -8 -71 -20 -193 -2 -19
-5 -74 -6 -122 -2 -49 -6 -88 -9 -88 -4 0 -54 27 -111 60 -57 33 -107 60 -110
60 -4 0 -58 -30 -120 -66 -166 -96 -369 -214 -409 -237 -19 -10 -93 -53 -163
-94 -117 -68 -157 -82 -157 -53 0 5 -4 10 -9 10 -5 0 -7 -8 -5 -17 8 -30 -16
-49 -190 -149 -93 -53 -183 -104 -200 -114 -17 -10 -69 -41 -116 -68 -47 -27
-130 -75 -185 -106 -55 -32 -113 -66 -130 -76 -16 -9 -106 -61 -200 -115 -381
-219 -501 -289 -513 -300 -11 -10 -13 -270 -12 -1400 0 -1305 1 -1389 18
-1401 9 -7 28 -19 42 -26 14 -7 100 -56 193 -110 92 -54 170 -98 174 -98 4 0
14 -6 22 -14 9 -7 41 -27 71 -43 30 -16 273 -156 540 -310 267 -154 502 -290
523 -302 44 -25 64 -37 222 -128 66 -38 224 -129 350 -202 127 -73 234 -137
239 -141 5 -5 16 -5 25 0 38 21 269 154 296 171 17 10 37 22 45 26 14 6 344
196 420 242 19 11 42 24 50 28 8 3 31 16 50 28 19 12 55 33 80 47 25 14 117
67 205 118 174 102 193 112 316 183 46 26 104 59 129 73 312 182 549 319 565
328 11 6 71 40 133 76 109 62 112 65 112 100 6 367 -1 2755 -7 2757 -5 2 -83
46 -173 99 -91 53 -183 106 -205 119 -68 38 -108 61 -161 92 -27 17 -70 41
-95 55 -176 99 -505 293 -511 302 -4 6 -8 7 -8 3 0 -5 -13 1 -29 12 -16 12
-33 21 -38 21 -4 0 -19 10 -33 21 -17 15 -19 19 -7 15 11 -3 16 -2 12 4 -3 6
-13 10 -21 10 -12 0 -19 14 -11 23 1 2 -6 11 -16 21 -9 10 -15 22 -12 27 4 5
1 9 -4 9 -6 0 -11 7 -11 16 0 8 4 13 9 9 5 -3 12 -1 15 4 4 5 -2 8 -11 7 -20
-3 -34 13 -56 67 -11 25 -12 35 -4 31 7 -4 3 2 -7 14 -11 12 -16 22 -12 22 3
0 -1 11 -10 25 -9 14 -13 32 -10 42 4 10 4 14 -1 10 -4 -5 -17 14 -29 40 -18
37 -20 51 -11 62 9 12 9 13 0 8 -14 -9 -47 58 -37 74 3 5 0 9 -6 9 -6 0 -8 5
-5 10 3 6 1 10 -4 10 -6 0 -11 8 -11 18 0 10 -5 23 -11 29 -7 7 -8 17 -3 25
14 21 13 37 -1 32 -7 -3 -16 0 -21 7 -4 8 -3 10 5 5 6 -4 2 9 -9 28 -11 20
-18 36 -15 36 3 0 -2 18 -11 40 -13 33 -14 43 -4 55 11 13 10 14 -6 8 -17 -6
-17 -5 -5 10 8 10 11 20 7 24 -3 3 -6 1 -6 -5 0 -7 -4 -12 -9 -12 -6 0 -8 9
-6 20 2 11 -1 20 -7 20 -5 0 -8 7 -5 15 4 8 1 18 -5 21 -8 5 -5 10 8 15 15 6
16 8 3 8 -19 1 -33 27 -23 43 3 5 13 7 21 4 8 -4 11 -1 8 5 -4 6 -13 8 -21 5
-15 -6 -21 3 -28 44 -3 14 -5 25 -7 25 -2 0 -9 44 -11 70 -1 11 -7 24 -12 28
-6 4 3 5 19 2 l30 -6 -25 13 c-25 13 -31 25 -34 63 0 11 -5 24 -11 28 -6 5 -4
7 5 4 8 -2 14 -10 12 -16 -1 -7 2 -9 9 -5 9 5 6 12 -9 24 -21 18 -36 107 -17
103 6 -1 11 11 11 25 2 26 1 26 -9 5 -5 -13 -15 -23 -20 -23 -6 0 -8 3 -5 6 4
3 2 19 -2 35 -5 16 -5 27 0 24 4 -3 10 2 13 10 4 10 1 12 -11 8 -9 -3 -14 -3
-10 2 4 4 2 15 -5 23 -8 10 -8 13 -1 9 7 -4 15 0 18 8 3 9 -1 18 -9 21 -8 4
-15 10 -15 15 0 4 7 6 15 3 8 -4 16 -1 16 5 4 32 6 36 18 33 7 -1 10 2 7 7 -4
5 -16 4 -31 -2 -20 -10 -21 -13 -8 -18 9 -3 12 -8 7 -12 -26 -16 -42 34 -20
62 8 11 8 13 0 8 -7 -4 -15 0 -18 9 -3 8 -2 12 4 9 6 -3 10 -1 10 4 0 6 -4 11
-9 11 -5 0 -8 14 -7 30 1 17 -1 30 -6 30 -4 0 -8 11 -8 25 0 19 4 23 17 18 13
-5 12 -2 -4 14 -16 16 -21 35 -22 89 -1 73 -4 83 -17 62z"/>
<path d="M4162 6718 c-15 -15 -15 -28 0 -28 6 0 8 3 5 7 -4 3 -2 12 4 20 14
16 7 17 -9 1z"/>
<path d="M4172 6681 c-11 -7 -11 -9 0 -14 9 -3 15 1 15 9 0 8 -1 14 -1 14 -1
0 -7 -4 -14 -9z"/>
<path d="M4175 6640 c-3 -5 -1 -10 4 -10 6 0 11 5 11 10 0 6 -2 10 -4 10 -3 0
-8 -4 -11 -10z"/>
<path d="M4155 6610 c-3 -6 1 -7 9 -4 18 7 21 14 7 14 -6 0 -13 -4 -16 -10z"/>
<path d="M4180 6498 c0 -4 4 -8 9 -8 6 0 12 4 15 8 3 5 -1 9 -9 9 -8 0 -15 -4
-15 -9z"/>
<path d="M4206 6482 c-3 -5 1 -9 9 -9 8 0 12 4 9 9 -3 4 -7 8 -9 8 -2 0 -6 -4
-9 -8z"/>
<path d="M4183 6445 c-3 -9 -3 -19 1 -22 3 -4 6 1 6 10 0 8 6 18 13 20 9 4 9
6 -1 6 -7 1 -15 -6 -19 -14z"/>
<path d="M4190 6361 c0 -13 12 -20 26 -14 20 8 17 19 -6 20 -11 1 -20 -2 -20
-6z"/>
<path d="M4206 6321 c-3 -5 1 -14 8 -20 10 -9 16 -9 21 -1 4 6 3 10 -2 9 -20
-3 -27 2 -13 11 9 6 10 10 3 10 -6 0 -14 -4 -17 -9z"/>
<path d="M4246 6278 c3 -5 10 -6 15 -3 13 9 11 12 -6 12 -8 0 -12 -4 -9 -9z"/>
<path d="M4246 6203 c-6 -14 -5 -15 5 -6 7 7 10 15 7 18 -3 3 -9 -2 -12 -12z"/>
<path d="M4270 6186 c0 -2 7 -7 16 -10 8 -3 12 -2 9 4 -6 10 -25 14 -25 6z"/>
<path d="M4236 6137 c3 -10 9 -15 12 -12 3 3 0 11 -7 18 -10 9 -11 8 -5 -6z"/>
<path d="M4252 6110 c-7 -11 -8 -20 -3 -20 9 0 24 30 18 36 -1 2 -8 -6 -15
-16z"/>
<path d="M4260 6080 c-12 -7 -10 -9 7 -7 12 0 19 5 17 9 -6 10 -6 10 -24 -2z"/>
<path d="M4257 6054 c7 -3 9 -13 6 -22 -4 -14 -3 -14 5 -2 12 16 7 30 -11 29
-9 0 -9 -2 0 -5z"/>
<path d="M4278 5973 c7 -3 16 -2 19 1 4 3 -2 6 -13 5 -11 0 -14 -3 -6 -6z"/>
<path d="M4291 5907 c2 -1 15 -11 29 -22 l25 -20 -19 23 c-11 12 -24 22 -29
22 -6 0 -8 -1 -6 -3z"/>
<path d="M4330 5810 c-9 -6 -10 -10 -3 -10 6 0 15 5 18 10 8 12 4 12 -15 0z"/>
<path d="M4340 5745 c0 -7 30 -13 34 -7 3 4 -4 9 -15 9 -10 1 -19 0 -19 -2z"/>
<path d="M4385 5680 c-3 -6 1 -7 9 -4 18 7 21 14 7 14 -6 0 -13 -4 -16 -10z"/>
<path d="M4429 5537 c6 -8 7 -18 3 -22 -4 -5 -1 -5 6 -1 10 6 10 11 1 22 -6 8
-14 14 -16 14 -3 0 0 -6 6 -13z"/>
<path d="M4455 5500 c-3 -5 -1 -10 4 -10 6 0 11 5 11 10 0 6 -2 10 -4 10 -3 0
-8 -4 -11 -10z"/>
<path d="M4553 5245 c0 -8 4 -12 9 -9 5 3 6 10 3 15 -9 13 -12 11 -12 -6z"/>
<path d="M4546 5197 c3 -10 9 -15 12 -12 3 3 0 11 -7 18 -10 9 -11 8 -5 -6z"/>
<path d="M4573 5172 c0 -12 5 -22 9 -22 11 0 10 12 -2 30 -7 12 -9 10 -7 -8z"/>
</g>
</svg>
